<mxfile host="app.diagrams.net" modified="2022-06-09T01:49:18.217Z" agent="5.0 (Windows NT 10.0; Win64; x64) AppleWebKit/537.36 (KHTML, like Gecko) Chrome/102.0.5005.61 Safari/537.36" etag="YAw8cBzOkS3e_-lEJ70T" version="18.2.1" type="github">
  <diagram id="30Lss51nYjTW8dQtxM1x" name="Page-1">
    <mxGraphModel dx="957" dy="604" grid="1" gridSize="10" guides="1" tooltips="1" connect="1" arrows="1" fold="1" page="1" pageScale="1" pageWidth="827" pageHeight="1169" math="0" shadow="0">
      <root>
        <mxCell id="0" />
        <mxCell id="1" parent="0" />
        <mxCell id="xFDmTXqGX13gUuX_C2Qi-1" value="&lt;font style=&quot;font-size: 18px;&quot;&gt;stm32f103c6&lt;/font&gt;" style="whiteSpace=wrap;html=1;aspect=fixed;fillColor=#d5e8d4;strokeColor=#82b366;" vertex="1" parent="1">
          <mxGeometry x="320" y="300" width="140" height="140" as="geometry" />
        </mxCell>
        <mxCell id="xFDmTXqGX13gUuX_C2Qi-2" value="&lt;font style=&quot;font-size: 18px;&quot;&gt;PT100&lt;/font&gt;" style="rounded=1;whiteSpace=wrap;html=1;fillColor=#dae8fc;strokeColor=#6c8ebf;" vertex="1" parent="1">
          <mxGeometry y="340" width="120" height="60" as="geometry" />
        </mxCell>
        <mxCell id="xFDmTXqGX13gUuX_C2Qi-3" value="&lt;font style=&quot;font-size: 18px;&quot;&gt;LCD1602&lt;/font&gt;" style="rounded=1;whiteSpace=wrap;html=1;fillColor=#fff2cc;strokeColor=#d6b656;" vertex="1" parent="1">
          <mxGeometry x="330" y="200" width="120" height="60" as="geometry" />
        </mxCell>
        <mxCell id="xFDmTXqGX13gUuX_C2Qi-5" value="&lt;font style=&quot;font-size: 18px;&quot;&gt;VT&lt;/font&gt;" style="ellipse;whiteSpace=wrap;html=1;aspect=fixed;fillColor=#ffe6cc;strokeColor=#d79b00;" vertex="1" parent="1">
          <mxGeometry x="500" y="330" width="80" height="80" as="geometry" />
        </mxCell>
        <mxCell id="xFDmTXqGX13gUuX_C2Qi-7" value="OP" style="rounded=1;whiteSpace=wrap;html=1;fontSize=18;fillColor=#e1d5e7;strokeColor=#9673a6;" vertex="1" parent="1">
          <mxGeometry x="160" y="340" width="120" height="60" as="geometry" />
        </mxCell>
        <mxCell id="xFDmTXqGX13gUuX_C2Qi-8" value="" style="shape=flexArrow;endArrow=classic;html=1;rounded=0;fontSize=18;exitX=1;exitY=0.5;exitDx=0;exitDy=0;" edge="1" parent="1" source="xFDmTXqGX13gUuX_C2Qi-2" target="xFDmTXqGX13gUuX_C2Qi-7">
          <mxGeometry width="50" height="50" relative="1" as="geometry">
            <mxPoint x="260" y="390" as="sourcePoint" />
            <mxPoint x="310" y="340" as="targetPoint" />
          </mxGeometry>
        </mxCell>
        <mxCell id="xFDmTXqGX13gUuX_C2Qi-9" value="" style="shape=flexArrow;endArrow=classic;html=1;rounded=0;fontSize=18;exitX=1;exitY=0.5;exitDx=0;exitDy=0;" edge="1" parent="1" source="xFDmTXqGX13gUuX_C2Qi-7" target="xFDmTXqGX13gUuX_C2Qi-1">
          <mxGeometry width="50" height="50" relative="1" as="geometry">
            <mxPoint x="260" y="390" as="sourcePoint" />
            <mxPoint x="310" y="340" as="targetPoint" />
          </mxGeometry>
        </mxCell>
        <mxCell id="xFDmTXqGX13gUuX_C2Qi-10" value="" style="shape=flexArrow;endArrow=classic;html=1;rounded=0;fontSize=18;entryX=0.5;entryY=1;entryDx=0;entryDy=0;" edge="1" parent="1" source="xFDmTXqGX13gUuX_C2Qi-1" target="xFDmTXqGX13gUuX_C2Qi-3">
          <mxGeometry width="50" height="50" relative="1" as="geometry">
            <mxPoint x="260" y="390" as="sourcePoint" />
            <mxPoint x="310" y="340" as="targetPoint" />
          </mxGeometry>
        </mxCell>
        <mxCell id="xFDmTXqGX13gUuX_C2Qi-11" value="" style="shape=flexArrow;endArrow=classic;html=1;rounded=0;fontSize=18;exitX=1;exitY=0.5;exitDx=0;exitDy=0;entryX=0;entryY=0.5;entryDx=0;entryDy=0;" edge="1" parent="1" source="xFDmTXqGX13gUuX_C2Qi-1" target="xFDmTXqGX13gUuX_C2Qi-5">
          <mxGeometry width="50" height="50" relative="1" as="geometry">
            <mxPoint x="260" y="390" as="sourcePoint" />
            <mxPoint x="310" y="340" as="targetPoint" />
          </mxGeometry>
        </mxCell>
      </root>
    </mxGraphModel>
  </diagram>
</mxfile>
